<svg width="38.968mm" height="29.707mm" version="1.1" viewBox="0 0 38.968 29.707" xmlns="http://www.w3.org/2000/svg"><g transform="translate(-53.133 -33.788)"><g><path d="m71.083 63.493c-0.28833 0-0.55079-0.04679-0.78755-0.14056-0.23676-0.09377-0.442-0.2283-0.61547-0.40411-0.17347-0.17581-0.30672-0.38817-0.40049-0.63665-0.09377-0.25083-0.14108-0.5321-0.14108-0.84388v-0.15451c0-0.31412 0.04731-0.5954 0.14108-0.84388 0.09377-0.24848 0.22627-0.46084 0.39739-0.63665 0.17112-0.17816 0.37457-0.31396 0.61133-0.40773 0.23676-0.09377 0.49973-0.14056 0.78807-0.14056 0.28364 0 0.54228 0.04679 0.7767 0.14056 0.23676 0.09377 0.442 0.22957 0.61547 0.40773 0.17347 0.17581 0.30852 0.38817 0.40463 0.63665 0.09611 0.24848 0.14418 0.52976 0.14418 0.84388v0.15451c0 0.31177-0.04807 0.59305-0.14418 0.84388-0.09377 0.24848-0.22754 0.46084-0.40101 0.63665-0.17112 0.17581-0.37509 0.31034-0.61185 0.40411-0.23442 0.09377-0.49357 0.14056-0.77721 0.14056zm-17.95-0.055811v-5.1201h1.9658c0.39148 0 0.72997 0.05901 1.016 0.17622 0.28833 0.11721 0.50984 0.29065 0.66456 0.52038 0.15472 0.22973 0.23203 0.51304 0.23203 0.8506 0 0.2813-0.04552 0.52036-0.13694 0.71727-0.09142 0.19691-0.22062 0.35993-0.38706 0.48886-0.11438 0.08987-0.24224 0.16814-0.38396 0.2341l1.0909 2.08v0.05271h-1.2273l-0.93483-1.85h-0.75293v1.85zm4.5501 0v-4.0969h3.066v0.85473h-1.9622v0.6997h1.6526v0.85111h-1.6526v0.84026h1.9518v0.85111h-2.3595zm3.4597 0v-4.0969h1.7689c0.35397 0 0.65864 0.06231 0.91416 0.18655 0.25786 0.12424 0.45597 0.29438 0.59428 0.51005 0.13831 0.21566 0.20722 0.46184 0.20722 0.73846 0 0.19691-0.03967 0.37748-0.11937 0.54157-0.07736 0.16409-0.19104 0.30574-0.34106 0.4253-0.14768 0.11721-0.32825 0.20876-0.54157 0.2744-0.21098 0.06329-0.44876 0.09457-0.71365 0.09457h-0.66456v1.326zm4.0437 0v-4.0969h1.7653c0.25083 0 0.47946 0.02594 0.68575 0.07751s0.38303 0.12889 0.53072 0.23203c0.14768 0.10314 0.26136 0.23107 0.34106 0.38344 0.0797 0.15237 0.11989 0.32912 0.11989 0.53072 0 0.24848-0.04019 0.45372-0.11989 0.61547s-0.18829 0.29298-0.3266 0.39377c-0.09527 0.06782-0.20096 0.12898-0.31626 0.18345l0.90692 1.6345v0.04599h-1.1886l-0.74362-1.3927h-0.55035v1.3927zm8.4496 0v-5.1201h1.9658c0.39148 0 0.72997 0.05901 1.016 0.17622 0.28833 0.11721 0.50984 0.29065 0.66456 0.52038 0.15472 0.22973 0.23203 0.51304 0.23203 0.8506 0 0.2813-0.04552 0.52036-0.13694 0.71727-0.09142 0.19691-0.2201 0.35993-0.38654 0.48886-0.11438 0.08987-0.24275 0.16814-0.38447 0.2341l1.0909 2.08v0.05271h-1.2268l-0.93483-1.85h-0.75293v1.85zm4.5501 0v-4.0969h3.066v0.85473h-1.9616v0.6997h1.6526v0.85111h-1.6526v0.84026h1.9513v0.85111h-2.3595zm3.4603 0v-4.0969h1.4345c0.30005 0 0.57421 0.04934 0.82269 0.14779 0.25083 0.09611 0.46776 0.23319 0.65061 0.41134 0.18284 0.17581 0.3245 0.3836 0.4253 0.6227s0.15141 0.50283 0.15141 0.79117v0.15451c0 0.3821-0.08825 0.72187-0.26407 1.0196-0.17347 0.29537-0.41253 0.52782-0.71727 0.6966s-0.6529 0.25321-1.0444 0.25321h-0.98805zm-10.563-0.78807c0.12893 0 0.24388-0.02542 0.34468-0.077 0.10314-0.05391 0.19012-0.1325 0.26045-0.23564 0.07267-0.10314 0.12734-0.22725 0.16485-0.37259 0.03751-0.14534 0.05633-0.3109 0.05633-0.49609v-0.15813c0-0.18988-0.01882-0.35747-0.05633-0.50281-0.03751-0.14534-0.09218-0.26869-0.16485-0.36949-0.07267-0.1008-0.16092-0.17684-0.26407-0.22841-0.1008-0.05157-0.21651-0.07751-0.34778-0.07751-0.13596 0-0.25676 0.02594-0.36225 0.07751-0.10314 0.05157-0.19012 0.12761-0.26045 0.22841-0.06798 0.1008-0.11935 0.22415-0.15451 0.36949-0.03516 0.14534-0.05271 0.31293-0.05271 0.50281v0.15813c0 0.18519 0.01755 0.35076 0.05271 0.49609 0.03516 0.14534 0.0878 0.26944 0.15813 0.37259s0.15806 0.18173 0.26355 0.23564c0.10549 0.05157 0.22629 0.077 0.36225 0.077zm11.667-0.06304h0.35502c0.22738 0 0.40795-0.03967 0.54157-0.11937 0.13596-0.08205 0.23337-0.2054 0.29197-0.36949 0.05861-0.16644 0.08785-0.37625 0.08785-0.62942v-0.16175c0-0.18284-0.01627-0.34332-0.04909-0.48162-0.03282-0.14065-0.08546-0.25688-0.15813-0.3483-0.07267-0.09377-0.17008-0.16396-0.29197-0.21084-0.11955-0.04689-0.26833-0.07028-0.44648-0.07028h-0.33073zm-20.503-1.3291h0.66456c0.14065 0 0.25688-0.02009 0.3483-0.05994 0.09142-0.04219 0.15907-0.09941 0.20361-0.17208 0.04689-0.07267 0.07028-0.1538 0.07028-0.24288 0-0.10549-0.02339-0.20289-0.07028-0.29197-0.04454-0.08908-0.11218-0.16054-0.20361-0.21446-0.09142-0.05391-0.20765-0.08062-0.3483-0.08062h-0.66456zm4.0437-0.06666h0.66094c0.12658 0 0.23239-0.01882 0.31678-0.05633 0.08673-0.03985 0.15108-0.09759 0.19327-0.1726 0.04219-0.07501 0.06305-0.16605 0.06305-0.27388 0-0.10549-0.0234-0.19501-0.07028-0.26768-0.04454-0.07267-0.11015-0.12734-0.19689-0.16485-0.08439-0.03985-0.18637-0.05994-0.30592-0.05994h-0.66094zm-12.012-0.49248h0.82321c0.17112 0 0.31278-0.03052 0.4253-0.09147s0.19695-0.14665 0.25321-0.25683c0.05861-0.11252 0.08785-0.24375 0.08785-0.39377 0-0.15472-0.02924-0.28797-0.08785-0.40049s-0.14559-0.19823-0.26045-0.25683c-0.11252-0.06095-0.2529-0.09147-0.42168-0.09147h-0.81959zm20.504 0h0.82269c0.17112 0 0.31278-0.03052 0.4253-0.09147s0.19696-0.14665 0.25322-0.25683c0.05861-0.11252 0.08785-0.24375 0.08785-0.39377 0-0.15472-0.02924-0.28797-0.08785-0.40049s-0.14559-0.19823-0.26045-0.25683c-0.11252-0.06095-0.2529-0.09147-0.42168-0.09147h-0.81907z" stroke-width=".17634" style="font-variant-caps:small-caps"/><path d="m86.852 62.982c-0.14454 0-0.30116-0.03777-0.47077-0.1173v-0.00155c0.0025 0.0013 0.0041 0.0018 0.0047 0.0021v-5.17e-4c-0.0019-2e-3 -0.01399-0.01146-0.02791-0.03101-0.02108-0.02961-0.04817-0.07587-0.0801-0.13694-0.06386-0.12213-0.14531-0.30195-0.2403-0.53692-0.238-0.58838-0.35347-1.0999-0.35347-1.5276 0-0.05166 0.01431-0.09193 0.05633-0.14056 0.04202-0.04862 0.11425-0.10173 0.22066-0.15038 0.32209-0.1479 0.56076-0.21333 0.68006-0.21084l0.0016 0.0021h0.0021c0.03027 0 0.04763 0.0058 0.07803 0.03876 0.03039 0.03297 0.06605 0.09547 0.09612 0.19172v0.0021c0.06816 0.20617 0.12699 0.36215 0.17932 0.47232 0.02617 0.05508 0.04948 0.09925 0.07855 0.13694 0.02837 0.03679 0.06872 0.08628 0.15606 0.08372 0.10727-0.0022 0.18123-0.07257 0.23823-0.154h0.0021v-0.0021c0.94053-1.3823 1.8092-2.3614 2.5936-2.9357 0.32404-0.23742 0.628-0.34727 0.91777-0.34727v-5.16e-4c0.21227 0 0.38096 0.0032 0.50591 0.0098 0.10468 0.0055 0.16006 0.0157 0.19172 0.0217 2.18e-4 0.0036 0 0.0013 0 0.0057-1e-3 0.0084-0.01818 0.06508-0.08423 0.14263-2.1647 2.4845-3.4503 4.0902-3.8809 4.8674-0.10938 0.19793-0.37524 0.31626-0.86506 0.31626z" fill="#009682" stop-color="#000000"/><path d="m86.852 63.24c-0.1906 0-0.38731-0.0487-0.58601-0.14263l-0.0042-0.0042c-0.05563-0.02902-0.08333-0.06422-0.11524-0.10904-0.03191-0.04482-0.06387-0.10033-0.09922-0.16795-0.07071-0.13523-0.15334-0.32131-0.25011-0.56069-0.24645-0.60927-0.37104-1.1492-0.37104-1.6232 0-0.11318 0.04313-0.22294 0.11886-0.31058 0.07573-0.08763 0.17942-0.15596 0.30851-0.21497 0.33653-0.15452 0.58775-0.23789 0.79117-0.23409h0.0021c0.10029 5.7e-4 0.19718 0.04875 0.26562 0.12299 0.06849 0.07429 0.11533 0.17066 0.15245 0.28887v0.0021c0.06608 0.19972 0.1225 0.34844 0.16588 0.43977 0.0094 0.0198 0.0138 0.02469 0.0217 0.03876 6.38e-4 -7e-4 0.0012-0.0012 0.0016-0.0016v-5.17e-4h0.001033v-5.16e-4h0.001034v-5.17e-4c6.51e-4 -7.3e-4 0.0024-0.0023 0.0041-0.0047 0.95015-1.3965 1.8304-2.3947 2.6541-2.9978 0.35552-0.26048 0.71406-0.39842 1.0702-0.39842v-5.17e-4c0.21498 0 0.38746 0.0029 0.51986 0.0098 0.13064 0.0068 0.21386 0.01369 0.28525 0.03514 0.05717 0.0156 0.10611 0.06502 0.12661 0.11162 0.02049 0.0466 0.02532 0.09072 0.02532 0.13849 0 0.11558-0.06174 0.20895-0.14831 0.31058v0.0021c-2.1616 2.481-3.4524 4.106-3.8494 4.8224-0.17321 0.31342-0.55903 0.44907-1.0919 0.44907zm0-0.25787c0.48983 0 0.75568-0.11832 0.86506-0.31626 0.43063-0.77724 1.7162-2.3829 3.8809-4.8674 0.06605-0.07755 0.08323-0.1342 0.08423-0.14263 0-0.0044 2.18e-4 -0.0021 0-0.0057-0.03166-6e-3 -0.08704-0.0162-0.19172-0.0217-0.12496-0.0066-0.29364-0.0098-0.50591-0.0098v5.16e-4c-0.28977 0-0.59373 0.10985-0.91777 0.34727-0.78443 0.57437-1.6531 1.5534-2.5936 2.9357v0.0021h-0.0021c-0.057 0.08143-0.13096 0.1518-0.23823 0.154-0.08734 0.0026-0.12769-0.04693-0.15606-0.08372-0.02907-0.03769-0.05238-0.08186-0.07855-0.13694-0.05233-0.11017-0.11116-0.26615-0.17932-0.47232v-0.0021c-0.03007-0.09625-0.06573-0.15875-0.09612-0.19172-0.0304-0.03296-0.04776-0.03876-0.07803-0.03876h-0.0021l-0.0016-0.0021c-0.11931-0.0025-0.35797 0.06294-0.68006 0.21084-0.10641 0.04864-0.17864 0.10176-0.22066 0.15038-0.04202 0.04863-0.05633 0.0889-0.05633 0.14056 0 0.42766 0.11547 0.93918 0.35347 1.5276 0.09499 0.23497 0.17644 0.41479 0.2403 0.53692 0.03193 0.06107 0.05902 0.10733 0.0801 0.13694 0.01391 0.01955 0.026 0.02905 0.02791 0.03101v5.17e-4c-5.87e-4 -2.3e-4 -0.0021-7.55e-4 -0.0047-0.0021v0.00155c0.16961 0.07954 0.32624 0.1173 0.47077 0.1173z" stop-color="#000000"/><path d="m69.009 57.148a0.62701 0.62701 0 0 1-0.4992-0.24391l-0.06201-0.07958a0.62701 0.62701 0 0 0-0.05323-0.68988l-5.6736-7.3045 1.8976-2.451 0.55345 0.71365-1.3436 1.7353 5.6715 7.3065a0.62701 0.62701 0 0 1-0.10904 0.88108 0.62701 0.62701 0 0 1-0.38189 0.13229zm-11.934-5.17e-4a0.62701 0.62701 0 0 1-0.38137-0.13177 0.62701 0.62701 0 0 1-0.16433-0.19172l4.2948-5.5454 0.55449 0.71417-3.8039 4.9113a0.62701 0.62701 0 0 1-0.49971 0.2434zm19.519-5.16e-4a0.62701 0.62701 0 0 1-0.22944-0.04341 0.62701 0.62701 0 0 0 0.28577-0.20516l0.06253-0.08062a0.62701 0.62701 0 0 0 0.16433 0.19172 0.62701 0.62701 0 0 0 0.05374 0.03617 0.62701 0.62701 0 0 1-0.33693 0.10129zm14.722-1e-3a0.62701 0.62701 0 0 1-0.49764-0.24391l-0.06098-0.07906a0.62701 0.62701 0 0 0-0.05426-0.68833l-17.059-22.029 0.05736-0.07441a0.62707 0.62707 0 0 1 0.49403-0.24391 0.62707 0.62707 0 0 1 0.49609 0.24391l17.117 22.104a0.62701 0.62701 0 0 1-0.1111 0.88108 0.62701 0.62701 0 0 1-0.38137 0.13022zm-11.845-0.0052a0.62701 0.62701 0 0 1-0.38086-0.13126 0.62701 0.62701 0 0 1-0.16485-0.1912 0.62701 0.62701 0 0 1 0-5.17e-4l4.2545-5.4942 0.55345 0.71468-3.7641 4.8602a0.62701 0.62701 0 0 1-0.49816 0.24236zm-3.653-1.2139-9.3023-11.999 5.4694-7.0621 0.55294 0.71417-4.9165 6.3479 8.7488 11.286z" fill="#cecece" stop-color="#000000" stroke-linecap="round" stroke-linejoin="round"/><path d="m75.488 57.148a0.62701 0.62701 0 0 1-0.49919-0.2434l-0.06253-0.08062a0.62701 0.62701 0 0 0-0.05271-0.68678l-9.463-12.207 6.0224-7.7778 0.55242 0.71365-5.4694 7.0621 9.3023 11.999-0.15761 0.2036a0.62701 0.62701 0 0 0 0.1111 0.87902 0.62701 0.62701 0 0 0 0.05374 0.03721 0.62701 0.62701 0 0 1-0.33745 0.10077zm-19.519-5.16e-4a0.62701 0.62701 0 0 1-0.38086-0.13126 0.62701 0.62701 0 0 1-0.16433-0.19224l4.8467-6.2575 0.55345 0.71262-4.3568 5.6255a0.62701 0.62701 0 0 1-0.49816 0.24288zm11.934 0a0.62701 0.62701 0 0 1-0.49816-0.24288l-0.06201-0.07958a0.62701 0.62701 0 0 0-0.05323-0.68988l-5.6741-7.3045 2.4505-3.1647 0.55294 0.71365-1.8976 2.451 5.6736 7.3045a0.62701 0.62701 0 0 1-0.1111 0.88108 0.62701 0.62701 0 0 1-0.38086 0.13126zm22.308 0a0.62701 0.62701 0 0 1-0.49919-0.24495l-0.05994-0.07751a0.62701 0.62701 0 0 0-0.05323-0.68988l-17.06-22.031 0.05633-0.07286a0.62707 0.62707 0 0 1 0.49609-0.24391 0.62707 0.62707 0 0 1 0.49609 0.24391l17.117 22.104a0.62701 0.62701 0 0 1-0.1111 0.88108 0.62701 0.62701 0 0 1-0.38189 0.13126zm-11.846-0.0057a0.62701 0.62701 0 0 1-0.38137-0.13178 0.62701 0.62701 0 0 1-0.1633-0.19017l4.808-6.2094 0.55242 0.71365-4.3165 5.5749a0.62701 0.62701 0 0 1-0.49919 0.24288z" fill="#8f8f8f" stop-color="#000000" stroke-linecap="round" stroke-linejoin="round"/><path d="m66.797 57.147a0.62701 0.62701 0 0 1-0.49816-0.24288l-0.06201-0.0801a0.62701 0.62701 0 0 0-0.05323-0.68936l-5.6741-7.3065 3.0019-3.8773 0.55397 0.71468-2.4505 3.1647 5.6741 7.3045a0.62701 0.62701 0 0 1-0.1111 0.88108 0.62701 0.62701 0 0 1-0.38086 0.13126zm22.307 0a0.62701 0.62701 0 0 1-0.49868-0.24495l-0.06098-0.07855a0.62701 0.62701 0 0 0-0.05219-0.68885l-17.061-22.029 0.05736-0.07441a0.62707 0.62707 0 0 1 0.49609-0.24391 0.62707 0.62707 0 0 1 0.49609 0.24391l17.117 22.104a0.62701 0.62701 0 0 1-0.11162 0.88108 0.62701 0.62701 0 0 1-0.38189 0.13126zm-34.241-5.17e-4a0.62701 0.62701 0 0 1-0.38034-0.13074 0.62701 0.62701 0 0 1-0.16485-0.19172l5.3992-6.9706 0.55346 0.71262-4.9093 6.3381a0.62701 0.62701 0 0 1-0.49816 0.24236zm19.518 0a0.62701 0.62701 0 0 1-0.49816-0.24236l-0.06253-0.08062a0.62701 0.62701 0 0 0-0.05271-0.68678l-9.4651-12.209 6.5763-8.4904 0.55345 0.71468-6.0224 7.7778 9.463 12.207a0.62701 0.62701 0 0 1-0.11162 0.87902 0.62701 0.62701 0 0 1-0.38034 0.13074zm2.8773-0.0052a0.62701 0.62701 0 0 1-0.38137-0.13178 0.62701 0.62701 0 0 1-0.16433-0.19172l5.3614-6.9215 0.55294 0.71365-4.8695 6.2885a0.62701 0.62701 0 0 1-0.4992 0.24288z" fill="#444" stop-color="#000000" stroke-linecap="round" stroke-linejoin="round"/><path d="m53.757 57.148a0.62701 0.62701 0 0 1-0.38137-0.13177 0.62701 0.62701 0 0 1-0.11162-0.87902l17.119-22.106a0.62707 0.62707 0 0 1 0.49609-0.24391 0.62707 0.62707 0 0 1 0.49403 0.24391l17.119 22.104a0.62701 0.62701 0 0 1-0.11369 0.88108 0.62701 0.62701 0 0 1-0.8785-0.11369l-5.426-7.0058-5.424 7.0022a0.62701 0.62701 0 0 1-0.87902 0.1111 0.62701 0.62701 0 0 1-0.1111-0.87902l5.6214-7.2595-10.402-13.434-6.5763 8.4904 9.4651 12.209a0.62701 0.62701 0 0 1-0.11162 0.87902 0.62701 0.62701 0 0 1-0.87902-0.11162l-9.2656-11.953-3.0019 3.8773 5.6741 7.3065a0.62701 0.62701 0 0 1-0.11162 0.88108 0.62701 0.62701 0 0 1-0.88057-0.11162l-5.4746-7.0507-5.4612 7.0507a0.62701 0.62701 0 0 1-0.49919 0.2434z" stop-color="#000000" stroke-linecap="round" stroke-linejoin="round"/></g></g></svg>
