<?xml version="1.0" encoding="UTF-8" standalone="no" ?>
<svg viewbox="0 0 1440 120" width="1440" height="120" preserveAspectRatio="xMidYMid meet" xmlns="http://www.w3.org/2000/svg" style="transform: translateX(-50%) scale(0.507639) translateX(50%);"><style>
                text {
                    text-anchor: middle;
                    font-size: 18;
                    transition: fill .4s ease;
                }
                path {
                    stroke: black;
                    stroke-width: 2;
                    fill: none;
                }
                </style><a href="#element0"><path d="M 30 82 v -80 h 0"></path><text x="30" y="100" id="element0">0</text></a><a href="#element0"><path d="M 60 82 v -20 h -30"></path><text x="60" y="100" id="element1">1</text></a><a href="#element0"><path d="M 90 82 v -20 h -60"></path><text x="90" y="100" id="element2">2</text></a><a href="#element0"><path d="M 120 82 v -20 h -90"></path><text x="120" y="100" id="element3">3</text></a><a href="#element0"><path d="M 150 82 v -20 h -120"></path><text x="150" y="100" id="element4">4</text></a><a href="#element0"><path d="M 180 82 v -40 h -150"></path><text x="180" y="100" id="element5">5</text></a><a href="#element5"><path d="M 210 82 v -20 h -30"></path><text x="210" y="100" id="element6">6</text></a><a href="#element5"><path d="M 240 82 v -20 h -60"></path><text x="240" y="100" id="element7">7</text></a><a href="#element5"><path d="M 270 82 v -20 h -90"></path><text x="270" y="100" id="element8">8</text></a><a href="#element5"><path d="M 300 82 v -20 h -120"></path><text x="300" y="100" id="element9">9</text></a><a href="#element0"><path d="M 330 82 v -40 h -300"></path><text x="330" y="100" id="element10">10</text></a><a href="#element10"><path d="M 360 82 v -20 h -30"></path><text x="360" y="100" id="element11">11</text></a><a href="#element10"><path d="M 390 82 v -20 h -60"></path><text x="390" y="100" id="element12">12</text></a><a href="#element10"><path d="M 420 82 v -20 h -90"></path><text x="420" y="100" id="element13">13</text></a><a href="#element10"><path d="M 450 82 v -20 h -120"></path><text x="450" y="100" id="element14">14</text></a><a href="#element0"><path d="M 480 82 v -40 h -450"></path><text x="480" y="100" id="element15">15</text></a><a href="#element15"><path d="M 510 82 v -20 h -30"></path><text x="510" y="100" id="element16">16</text></a><a href="#element15"><path d="M 540 82 v -20 h -60"></path><text x="540" y="100" id="element17">17</text></a><a href="#element15"><path d="M 570 82 v -20 h -90"></path><text x="570" y="100" id="element18">18</text></a><a href="#element15"><path d="M 600 82 v -20 h -120"></path><text x="600" y="100" id="element19">19</text></a><a href="#element0"><path d="M 630 82 v -40 h -600"></path><text x="630" y="100" id="element20">20</text></a><a href="#element20"><path d="M 660 82 v -20 h -30"></path><text x="660" y="100" id="element21">21</text></a><a href="#element20"><path d="M 690 82 v -20 h -60"></path><text x="690" y="100" id="element22">22</text></a><a href="#element20"><path d="M 720 82 v -20 h -90"></path><text x="720" y="100" id="element23">23</text></a><a href="#element20"><path d="M 750 82 v -20 h -120"></path><text x="750" y="100" id="element24">24</text></a><a href="#element0"><path d="M 780 82 v -60 h -750"></path><text x="780" y="100" id="element25">25</text></a><a href="#element25"><path d="M 810 82 v -20 h -30"></path><text x="810" y="100" id="element26">26</text></a><a href="#element25"><path d="M 840 82 v -20 h -60"></path><text x="840" y="100" id="element27">27</text></a><a href="#element25"><path d="M 870 82 v -20 h -90"></path><text x="870" y="100" id="element28">28</text></a><a href="#element25"><path d="M 900 82 v -20 h -120"></path><text x="900" y="100" id="element29">29</text></a><a href="#element25"><path d="M 930 82 v -40 h -150"></path><text x="930" y="100" id="element30">30</text></a><a href="#element30"><path d="M 960 82 v -20 h -30"></path><text x="960" y="100" id="element31">31</text></a><a href="#element30"><path d="M 990 82 v -20 h -60"></path><text x="990" y="100" id="element32">32</text></a><a href="#element30"><path d="M 1020 82 v -20 h -90"></path><text x="1020" y="100" id="element33">33</text></a><a href="#element30"><path d="M 1050 82 v -20 h -120"></path><text x="1050" y="100" id="element34">34</text></a><a href="#element25"><path d="M 1080 82 v -40 h -300"></path><text x="1080" y="100" id="element35">35</text></a><a href="#element35"><path d="M 1110 82 v -20 h -30"></path><text x="1110" y="100" id="element36">36</text></a><a href="#element35"><path d="M 1140 82 v -20 h -60"></path><text x="1140" y="100" id="element37">37</text></a><a href="#element35"><path d="M 1170 82 v -20 h -90"></path><text x="1170" y="100" id="element38">38</text></a><a href="#element35"><path d="M 1200 82 v -20 h -120"></path><text x="1200" y="100" id="element39">39</text></a><a href="#element25"><path d="M 1230 82 v -40 h -450"></path><text x="1230" y="100" id="element40">40</text></a><a href="#element40"><path d="M 1260 82 v -20 h -30"></path><text x="1260" y="100" id="element41">41</text></a><a href="#element40"><path d="M 1290 82 v -20 h -60"></path><text x="1290" y="100" id="element42">42</text></a><a href="#element40"><path d="M 1320 82 v -20 h -90"></path><text x="1320" y="100" id="element43">43</text></a><a href="#element40"><path d="M 1350 82 v -20 h -120"></path><text x="1350" y="100" id="element44">44</text></a><a href="#element25"><path d="M 1380 82 v -40 h -600"></path><text x="1380" y="100" id="element45">45</text></a><a href="#element45"><path d="M 1410 82 v -20 h -30"></path><text x="1410" y="100" id="element46">46</text></a></svg>