<?xml version="1.0" encoding="UTF-8" standalone="no" ?>
<svg viewbox="0 0 390 120" width="390" height="120" preserveAspectRatio="xMidYMid meet" xmlns="http://www.w3.org/2000/svg"><style>
                text {
                    text-anchor: middle;
                    font-size: 18;
                    transition: fill .4s ease;
                }
                path {
                    stroke: black;
                    stroke-width: 2;
                    fill: none;
                }
                </style><a href="#element0"><path d="M 30 82 v -80 h 0"></path><text x="30" y="100" id="element0">0</text></a><a href="#element0"><path d="M 60 82 v -20 h -30"></path><text x="60" y="100" id="element1">1</text></a><a href="#element0"><path d="M 90 82 v -20 h -60"></path><text x="90" y="100" id="element2">2</text></a><a href="#element0"><path d="M 120 82 v -40 h -90"></path><text x="120" y="100" id="element3">3</text></a><a href="#element3"><path d="M 150 82 v -20 h -30"></path><text x="150" y="100" id="element4">4</text></a><a href="#element3"><path d="M 180 82 v -20 h -60"></path><text x="180" y="100" id="element5">5</text></a><a href="#element0"><path d="M 210 82 v -40 h -180"></path><text x="210" y="100" id="element6">6</text></a><a href="#element6"><path d="M 240 82 v -20 h -30"></path><text x="240" y="100" id="element7">7</text></a><a href="#element6"><path d="M 270 82 v -20 h -60"></path><text x="270" y="100" id="element8">8</text></a><a href="#element0"><path d="M 300 82 v -60 h -270"></path><text x="300" y="100" id="element9">9</text></a><a href="#element9"><path d="M 330 82 v -20 h -30"></path><text x="330" y="100" id="element10">10</text></a><a href="#element9"><path d="M 360 82 v -20 h -60"></path><text x="360" y="100" id="element11">11</text></a></svg>